<svg width="75" height="72" viewBox="0 0 75 72" fill="none" xmlns="http://www.w3.org/2000/svg">
<path d="M1 43.2154L30.8453 0H42.7017V21.8115V43.6231L30.8453 43.6058V16.7154L13.674 43.2154H1Z" fill="url(#paint0_linear_12_7)"/>
<path d="M44.337 21.8115L58.9866 0H70.9116L56.1934 21.8115C61.7547 28.8169 65.3503 34.1715 70.9116 41.1769H75V53H69.8552H64.779V43.4223H58.9275L44.337 21.8115Z" fill="url(#paint1_linear_12_7)"/>
<path d="M6.732 54L3.888 49.908L5.148 49.128L8.496 54H6.732ZM1.176 54V45.6H2.712V54H1.176ZM2.244 50.46V49.116H5.076V50.46H2.244ZM5.292 49.98L3.864 49.788L6.732 45.6H8.388L5.292 49.98ZM7.548 55.788V53.616L7.92 54H6.732V52.68H8.988V55.788H7.548ZM10.0385 54L13.8185 45.6H15.3545L19.1465 54H17.5145L14.2625 46.428H14.8865L11.6465 54H10.0385ZM11.7785 52.056L12.1985 50.832H16.7345L17.1545 52.056H11.7785ZM21.6346 54V45.6H25.0906C25.8346 45.6 26.4706 45.72 26.9986 45.96C27.5346 46.2 27.9466 46.544 28.2346 46.992C28.5226 47.44 28.6666 47.972 28.6666 48.588C28.6666 49.204 28.5226 49.736 28.2346 50.184C27.9466 50.632 27.5346 50.976 26.9986 51.216C26.4706 51.456 25.8346 51.576 25.0906 51.576H22.4986L23.1946 50.844V54H21.6346ZM23.1946 51.012L22.4986 50.256H25.0186C25.7066 50.256 26.2226 50.112 26.5666 49.824C26.9186 49.528 27.0946 49.116 27.0946 48.588C27.0946 48.052 26.9186 47.64 26.5666 47.352C26.2226 47.064 25.7066 46.92 25.0186 46.92H22.4986L23.1946 46.152V51.012ZM40.6109 54L38.1629 49.908L39.4829 49.128L42.4109 54H40.6109ZM36.6029 50.46V49.116H39.1349V50.46H36.6029ZM39.5669 49.98L38.1149 49.788L40.5749 45.6H42.2309L39.5669 49.98ZM31.9709 54H30.1709L33.0989 49.128L34.4309 49.908L31.9709 54ZM37.0589 54H35.5349V45.6H37.0589V54ZM35.9909 50.46H33.4469V49.116H35.9909V50.46ZM33.0269 49.98L30.3509 45.6H32.0069L34.4549 49.788L33.0269 49.98ZM48.5707 48.444C49.5707 48.444 50.3427 48.668 50.8867 49.116C51.4307 49.564 51.7027 50.236 51.7027 51.132C51.7027 52.076 51.4027 52.792 50.8027 53.28C50.2107 53.76 49.3827 54 48.3187 54H44.7067V45.6H46.2427V48.444H48.5707ZM48.2467 52.8C48.8467 52.8 49.3107 52.66 49.6387 52.38C49.9747 52.1 50.1427 51.692 50.1427 51.156C50.1427 50.628 49.9787 50.244 49.6507 50.004C49.3227 49.756 48.8547 49.632 48.2467 49.632H46.2427V52.8H48.2467ZM52.9147 54V45.6H54.4508V54H52.9147Z" fill="#1B1C88"/>
<path d="M1.02 65.12C0.884 65.12 0.748 65.108 0.612 65.084C0.476 65.06 0.328 65.032 0.168 65L0.276 63.644C0.388 63.676 0.508 63.692 0.636 63.692C0.972 63.692 1.24 63.556 1.44 63.284C1.64 63.004 1.784 62.596 1.872 62.06C1.96 61.524 2.02 60.864 2.052 60.08L2.172 56.6H8.352V65H6.816V57.536L7.176 57.92H3.18L3.516 57.524L3.432 60.02C3.408 60.852 3.352 61.584 3.264 62.216C3.176 62.848 3.04 63.38 2.856 63.812C2.68 64.236 2.444 64.56 2.148 64.784C1.852 65.008 1.476 65.12 1.02 65.12ZM15.8151 65.12C15.1591 65.12 14.5551 65.012 14.0031 64.796C13.4511 64.58 12.9711 64.28 12.5631 63.896C12.1551 63.504 11.8391 63.048 11.6151 62.528C11.3911 62 11.2791 61.424 11.2791 60.8C11.2791 60.176 11.3911 59.604 11.6151 59.084C11.8391 58.556 12.1551 58.1 12.5631 57.716C12.9711 57.324 13.4511 57.02 14.0031 56.804C14.5551 56.588 15.1551 56.48 15.8031 56.48C16.4591 56.48 17.0591 56.588 17.6031 56.804C18.1551 57.02 18.6351 57.324 19.0431 57.716C19.4511 58.1 19.7671 58.556 19.9911 59.084C20.2151 59.604 20.3271 60.176 20.3271 60.8C20.3271 61.424 20.2151 62 19.9911 62.528C19.7671 63.056 19.4511 63.512 19.0431 63.896C18.6351 64.28 18.1551 64.58 17.6031 64.796C17.0591 65.012 16.4631 65.12 15.8151 65.12ZM15.8031 63.752C16.2271 63.752 16.6191 63.68 16.9791 63.536C17.3391 63.392 17.6511 63.188 17.9151 62.924C18.1791 62.652 18.3831 62.34 18.5271 61.988C18.6791 61.628 18.7551 61.232 18.7551 60.8C18.7551 60.368 18.6791 59.976 18.5271 59.624C18.3831 59.264 18.1791 58.952 17.9151 58.688C17.6511 58.416 17.3391 58.208 16.9791 58.064C16.6191 57.92 16.2271 57.848 15.8031 57.848C15.3791 57.848 14.9871 57.92 14.6271 58.064C14.2751 58.208 13.9631 58.416 13.6911 58.688C13.4271 58.952 13.2191 59.264 13.0671 59.624C12.9231 59.976 12.8511 60.368 12.8511 60.8C12.8511 61.224 12.9231 61.616 13.0671 61.976C13.2191 62.336 13.4271 62.652 13.6911 62.924C13.9551 63.188 14.2671 63.392 14.6271 63.536C14.9871 63.68 15.3791 63.752 15.8031 63.752ZM23.2638 65V56.6H24.5358L28.2198 62.732H27.5358L31.1598 56.6H32.4318L32.4558 65H30.9678L30.9558 58.916H31.2678L28.1958 64.04H27.4998L24.3798 58.916H24.7398V65H23.2638ZM36.0185 65V56.6H42.5585V57.884H37.5545V59.948H40.0385C41.0465 59.948 41.8105 60.16 42.3305 60.584C42.8585 61 43.1225 61.608 43.1225 62.408C43.1225 63.232 42.8305 63.872 42.2465 64.328C41.6705 64.776 40.8545 65 39.7985 65H36.0185ZM37.5545 63.8H39.7145C40.3145 63.8 40.7705 63.684 41.0825 63.452C41.3945 63.22 41.5505 62.884 41.5505 62.444C41.5505 61.58 40.9385 61.148 39.7145 61.148H37.5545V63.8ZM44.951 65L48.731 56.6H50.267L54.059 65H52.427L49.175 57.428H49.799L46.559 65H44.951ZM46.691 63.056L47.111 61.832H51.647L52.067 63.056H46.691ZM56.5471 65V56.6H60.0031C60.7471 56.6 61.3831 56.72 61.9111 56.96C62.4471 57.2 62.8591 57.544 63.1471 57.992C63.4351 58.44 63.5791 58.972 63.5791 59.588C63.5791 60.204 63.4351 60.736 63.1471 61.184C62.8591 61.632 62.4471 61.976 61.9111 62.216C61.3831 62.456 60.7471 62.576 60.0031 62.576H57.4111L58.1071 61.844V65H56.5471ZM58.1071 62.012L57.4111 61.256H59.9311C60.6191 61.256 61.1351 61.112 61.4791 60.824C61.8311 60.528 62.0071 60.116 62.0071 59.588C62.0071 59.052 61.8311 58.64 61.4791 58.352C61.1351 58.064 60.6191 57.92 59.9311 57.92H57.4111L58.1071 57.152V62.012ZM71.4599 64.28V57.92H68.1719L68.1119 59.408C68.0879 59.968 68.0519 60.5 68.0039 61.004C67.9639 61.5 67.8959 61.952 67.7999 62.36C67.7119 62.768 67.5879 63.108 67.4279 63.38C67.2679 63.652 67.0719 63.832 66.8399 63.92L65.1599 63.68C65.4639 63.696 65.7119 63.592 65.9039 63.368C66.1039 63.144 66.2599 62.832 66.3719 62.432C66.4839 62.032 66.5679 61.564 66.6239 61.028C66.6799 60.484 66.7199 59.896 66.7439 59.264L66.8399 56.6H72.9959V64.28H71.4599ZM64.8719 66.788L64.8839 63.68H74.2079V66.788H72.7679V65H66.3239V66.788H64.8719Z" fill="#ED2022"/>
<defs>
<linearGradient id="paint0_linear_12_7" x1="38" y1="0" x2="38" y2="53" gradientUnits="userSpaceOnUse">
<stop offset="0.331731" stop-color="#F3131C"/>
<stop offset="0.519231" stop-color="#EA5837"/>
</linearGradient>
<linearGradient id="paint1_linear_12_7" x1="38" y1="0" x2="38" y2="53" gradientUnits="userSpaceOnUse">
<stop offset="0.341346" stop-color="#3F37A0"/>
<stop offset="0.697115" stop-color="#2E3191"/>
</linearGradient>
</defs>
</svg>
