<svg width="226" height="53" viewBox="0 0 226 53" fill="none" xmlns="http://www.w3.org/2000/svg">
<path d="M0 43.2154L29.8453 0H41.7017V21.8115V43.6231L29.8453 43.6058V16.7154L12.674 43.2154H0Z" fill="url(#paint0_linear_14_3)"/>
<path d="M43.337 21.8115L57.9866 0H69.9116L55.1934 21.8115C60.7547 28.8169 64.3503 34.1715 69.9116 41.1769H74V53H68.8552H63.779V43.4223H57.9275L43.337 21.8115Z" fill="url(#paint1_linear_14_3)"/>
<path d="M92.96 23L87.728 14.912L90.872 13.016L97.376 23H92.96ZM82.04 23V6.2H85.904V23H82.04ZM84.776 16.232V12.992H90.632V16.232H84.776ZM91.232 15.032L87.656 14.6L93.104 6.2H97.208L91.232 15.032ZM94.592 26.48V22.088L95.48 23H92.96V19.832H98.168V26.48H94.592ZM99.5204 23L107.008 6.2H110.848L118.36 23H114.28L108.136 8.168H109.672L103.504 23H99.5204ZM103.264 19.4L104.296 16.448H112.936L113.992 19.4H103.264ZM122.268 23V6.2H129.54C131.044 6.2 132.34 6.448 133.428 6.944C134.516 7.424 135.356 8.12 135.948 9.032C136.54 9.944 136.836 11.032 136.836 12.296C136.836 13.544 136.54 14.624 135.948 15.536C135.356 16.448 134.516 17.152 133.428 17.648C132.34 18.128 131.044 18.368 129.54 18.368H124.428L126.156 16.616V23H122.268ZM126.156 17.048L124.428 15.2H129.324C130.524 15.2 131.42 14.944 132.012 14.432C132.604 13.92 132.9 13.208 132.9 12.296C132.9 11.368 132.604 10.648 132.012 10.136C131.42 9.624 130.524 9.368 129.324 9.368H124.428L126.156 7.52V17.048ZM159.714 23L155.202 14.912L158.49 13.016L164.202 23H159.714ZM152.346 16.232V12.992H157.578V16.232H152.346ZM158.706 15.032L155.106 14.6L159.786 6.2H163.89L158.706 15.032ZM143.418 23H138.93L144.642 13.016L147.93 14.912L143.418 23ZM153.498 23H149.682V6.2H153.498V23ZM150.81 16.232H145.554V12.992H150.81V16.232ZM144.45 15.032L139.242 6.2H143.346L148.002 14.6L144.45 15.032ZM175.882 11.72C177.914 11.72 179.482 12.176 180.586 13.088C181.69 13.984 182.242 15.336 182.242 17.144C182.242 19.064 181.626 20.52 180.394 21.512C179.178 22.504 177.49 23 175.33 23H167.746V6.2H171.61V11.72H175.882ZM175.114 20.12C176.106 20.12 176.89 19.872 177.466 19.376C178.042 18.88 178.33 18.16 178.33 17.216C178.33 16.288 178.042 15.624 177.466 15.224C176.906 14.808 176.122 14.6 175.114 14.6H171.61V20.12H175.114ZM184.378 23V6.2H188.242V23H184.378Z" fill="#1B1C88"/>
<path d="M82.256 47.264C81.968 47.264 81.664 47.24 81.344 47.192C81.04 47.144 80.704 47.08 80.336 47L80.576 43.712C80.8 43.776 81.032 43.808 81.272 43.808C81.928 43.808 82.44 43.544 82.808 43.016C83.176 42.472 83.44 41.696 83.6 40.688C83.76 39.68 83.864 38.456 83.912 37.016L84.152 30.2H97.064V47H93.224V32.48L94.112 33.368H86.696L87.488 32.432L87.344 36.872C87.296 38.52 87.184 39.984 87.008 41.264C86.832 42.544 86.56 43.632 86.192 44.528C85.824 45.424 85.32 46.104 84.68 46.568C84.04 47.032 83.232 47.264 82.256 47.264ZM110.98 47.288C109.652 47.288 108.42 47.072 107.284 46.64C106.164 46.208 105.188 45.6 104.356 44.816C103.54 44.032 102.9 43.112 102.436 42.056C101.988 41 101.764 39.848 101.764 38.6C101.764 37.352 101.988 36.2 102.436 35.144C102.9 34.088 103.548 33.168 104.38 32.384C105.212 31.6 106.188 30.992 107.308 30.56C108.428 30.128 109.644 29.912 110.956 29.912C112.284 29.912 113.5 30.128 114.604 30.56C115.724 30.992 116.692 31.6 117.508 32.384C118.34 33.168 118.988 34.088 119.452 35.144C119.916 36.184 120.148 37.336 120.148 38.6C120.148 39.848 119.916 41.008 119.452 42.08C118.988 43.136 118.34 44.056 117.508 44.84C116.692 45.608 115.724 46.208 114.604 46.64C113.5 47.072 112.292 47.288 110.98 47.288ZM110.956 43.976C111.708 43.976 112.396 43.848 113.02 43.592C113.66 43.336 114.22 42.968 114.7 42.488C115.18 42.008 115.548 41.44 115.804 40.784C116.076 40.128 116.212 39.4 116.212 38.6C116.212 37.8 116.076 37.072 115.804 36.416C115.548 35.76 115.18 35.192 114.7 34.712C114.236 34.232 113.684 33.864 113.044 33.608C112.404 33.352 111.708 33.224 110.956 33.224C110.204 33.224 109.508 33.352 108.868 33.608C108.244 33.864 107.692 34.232 107.212 34.712C106.732 35.192 106.356 35.76 106.084 36.416C105.828 37.072 105.7 37.8 105.7 38.6C105.7 39.384 105.828 40.112 106.084 40.784C106.356 41.44 106.724 42.008 107.188 42.488C107.668 42.968 108.228 43.336 108.868 43.592C109.508 43.848 110.204 43.976 110.956 43.976ZM124.823 47V30.2H128.039L135.191 42.056H133.487L140.519 30.2H143.735L143.759 47H140.111L140.087 35.792H140.783L135.143 45.224H133.415L127.655 35.792H128.471V47H124.823ZM149.612 47V30.2H163.172V33.296H153.476V36.752H158.132C160.164 36.752 161.708 37.176 162.764 38.024C163.836 38.872 164.372 40.104 164.372 41.72C164.372 43.384 163.78 44.68 162.596 45.608C161.412 46.536 159.74 47 157.58 47H149.612ZM153.476 44.12H157.364C158.356 44.12 159.116 43.928 159.644 43.544C160.172 43.144 160.436 42.568 160.436 41.816C160.436 40.344 159.412 39.608 157.364 39.608H153.476V44.12ZM167.021 47L174.509 30.2H178.349L185.861 47H181.781L175.637 32.168H177.173L171.005 47H167.021ZM170.765 43.4L171.797 40.448H180.437L181.493 43.4H170.765ZM189.769 47V30.2H197.041C198.545 30.2 199.841 30.448 200.929 30.944C202.017 31.424 202.857 32.12 203.449 33.032C204.041 33.944 204.337 35.032 204.337 36.296C204.337 37.544 204.041 38.624 203.449 39.536C202.857 40.448 202.017 41.152 200.929 41.648C199.841 42.128 198.545 42.368 197.041 42.368H191.929L193.657 40.616V47H189.769ZM193.657 41.048L191.929 39.2H196.825C198.025 39.2 198.921 38.944 199.513 38.432C200.105 37.92 200.401 37.208 200.401 36.296C200.401 35.368 200.105 34.648 199.513 34.136C198.921 33.624 198.025 33.368 196.825 33.368H191.929L193.657 31.52V41.048ZM218.898 45.272V33.368H213.138L213.066 35.816C213.018 36.856 212.946 37.84 212.85 38.768C212.77 39.696 212.642 40.544 212.466 41.312C212.29 42.064 212.058 42.704 211.77 43.232C211.498 43.76 211.154 44.136 210.738 44.36L206.586 43.832C207.162 43.848 207.634 43.648 208.002 43.232C208.386 42.816 208.69 42.232 208.914 41.48C209.138 40.712 209.298 39.816 209.394 38.792C209.506 37.768 209.586 36.656 209.634 35.456L209.826 30.2H222.738V45.272H218.898ZM206.034 50.48L206.058 43.832H225.09V50.48H221.49V47H209.634V50.48H206.034Z" fill="#ED2022"/>
<defs>
<linearGradient id="paint0_linear_14_3" x1="37" y1="0" x2="37" y2="53" gradientUnits="userSpaceOnUse">
<stop offset="0.331731" stop-color="#F3131C"/>
<stop offset="0.519231" stop-color="#EA5837"/>
</linearGradient>
<linearGradient id="paint1_linear_14_3" x1="37" y1="0" x2="37" y2="53" gradientUnits="userSpaceOnUse">
<stop offset="0.341346" stop-color="#3F37A0"/>
<stop offset="0.697115" stop-color="#2E3191"/>
</linearGradient>
</defs>
</svg>
